HIERARCHY
ROOT Hips
{
  OFFSET -35.2597 29.1586 114.425
  CHANNELS 6 Xposition Yposition Zposition Zrotation Xrotation Yrotation
  JOINT LeftUpLeg
  {
    OFFSET 8.64259 1.95398 -2.38835
    CHANNELS 3 Zrotation Xrotation Yrotation
    JOINT LeftLeg
    {
      OFFSET 43.7702 0 0
      CHANNELS 3 Zrotation Xrotation Yrotation
      JOINT LeftFoot
      {
        OFFSET 40.6238 0 0
        CHANNELS 3 Zrotation Xrotation Yrotation
        JOINT LeftToeBase
        {
          OFFSET 12.7242 0 0
          CHANNELS 3 Zrotation Xrotation Yrotation
          End Site
          {
            OFFSET 0 0 0
          }
        }
      }
    }
  }
  JOINT RightUpLeg
  {
    OFFSET -8.2249 1.95398 -2.59336
    CHANNELS 3 Zrotation Xrotation Yrotation
    JOINT RightLeg
    {
      OFFSET 43.5653 0 0
      CHANNELS 3 Zrotation Xrotation Yrotation
      JOINT RightFoot
      {
        OFFSET 40.6238 0 0
        CHANNELS 3 Zrotation Xrotation Yrotation
        JOINT RightToeBase
        {
          OFFSET 12.7242 0 0
          CHANNELS 3 Zrotation Xrotation Yrotation
          End Site
          {
            OFFSET 0 0 0
          }
        }
      }
    }
  }
  JOINT Spine
  {
    OFFSET 0.165834 0.87714 6.61349
    CHANNELS 3 Zrotation Xrotation Yrotation
    JOINT Spine1
    {
      OFFSET 7.38963 1.71661e-005 0
      CHANNELS 3 Zrotation Xrotation Yrotation
      JOINT Spine2
      {
        OFFSET 11.9445 1.14441e-005 0
        CHANNELS 3 Zrotation Xrotation Yrotation
        JOINT Spine3
        {
          OFFSET 14.7254 4.19617e-005 0
          CHANNELS 3 Zrotation Xrotation Yrotation
          JOINT Spine4
          {
            OFFSET 10.9679 0 0
            CHANNELS 3 Zrotation Xrotation Yrotation
            JOINT RightShoulder
            {
              OFFSET 2.46616 -1.6653 3.69651
              CHANNELS 3 Zrotation Xrotation Yrotation
              JOINT RightArm
              {
                OFFSET 13.0012 0 0
                CHANNELS 3 Zrotation Xrotation Yrotation
                JOINT RightForeArm
                {
                  OFFSET 28.7848 1.62311e-005 0
                  CHANNELS 3 Zrotation Xrotation Yrotation
                  JOINT RightHand
                  {
                    OFFSET 26.5688 1.62095e-005 0
                    CHANNELS 3 Zrotation Xrotation Yrotation
                    End Site
                    {
                      OFFSET 0 0 0
                    }
                  }
                }
              }
            }
            JOINT LeftShoulder
            {
              OFFSET 2.38034 -1.29275 -3.7523
              CHANNELS 3 Zrotation Xrotation Yrotation
              JOINT LeftArm
              {
                OFFSET 16.3182 6.07031e-005 0
                CHANNELS 3 Zrotation Xrotation Yrotation
                JOINT LeftForeArm
                {
                  OFFSET 27.0901 0 0
                  CHANNELS 3 Zrotation Xrotation Yrotation
                  JOINT LeftHand
                  {
                    OFFSET 24.5451 1.51738e-005 0
                    CHANNELS 3 Zrotation Xrotation Yrotation
                    End Site
                    {
                      OFFSET 0 0 0
                    }
                  }
                }
              }
            }
            JOINT Neck
            {
              OFFSET 5.0226 -0.0266342 0
              CHANNELS 3 Zrotation Xrotation Yrotation
              JOINT Head
              {
                OFFSET 6.69364 2.86102e-005 0
                CHANNELS 3 Zrotation Xrotation Yrotation
                End Site
                {
                  OFFSET 0 0 0
                }
              }
            }
          }
        }
      }
    }
  }
}
MOTION
Frames:	14
Frame Time:	0.0416667
19.5588 98.1314 -11.8988 153.086 -81.5374 153.369 -176.22 16.0464 87.0004 -7.66398 -18.0581 -2.19358 61.8324 1.8527 -1.59741 17.5298 -9.26948 5.26611 173.406 -8.63723 90.6507 -20.2624 -7.49256 -0.255609 75.3527 -7.82948 -1.92348 28.9892 -0.725891 2.13695 1.53427 8.19997 -90.1059 10.483 3.00762 -0.476972 -1.18458 2.98372 -0.609007 -23.7474 3.0118 0.44984 -3.73479 3.0118 0.449834 87.5026 -31.6239 -110.954 33.6681 9.06849 -20.5733 -5.87062 -49.4001 -5.81945 -25.6546 3.92086 -22.7463 -85.1418 -61.5364 87.4001 -18.0984 -16.0456 4.38223 3.66025 41.0994 -4.75659 -1.41391 -0.199062 -17.5188 -4.1808 -3.01864 5.50315 -2.10082 -3.53251 -3.77662 
21.3065 97.4643 -4.97526 150.592 -80.5947 151.291 -175.649 14.1021 86.1149 -9.02322 -21.2079 -3.32179 58.3771 -0.161608 -0.174774 14.4091 -9.82561 3.25752 171.801 -13.6427 89.184 -19.998 -8.55789 0.0936748 74.2031 -8.24826 -2.57026 34.6624 -2.90838 1.92784 1.62064 8.07901 -90.1188 10.7264 3.1726 -0.527788 -0.940823 3.14631 -0.667051 -23.5068 3.18441 0.451107 -3.49418 3.1844 0.4511 86.8458 -32.5232 -111.807 35.4474 8.01003 -20.76 -5.51013 -44.9558 -5.57865 -26.1012 3.91306 -22.3916 -84.1043 -61.1907 88.7487 -19.0259 -15.7863 5.20313 3.36879 36.3404 -4.43933 -0.495298 -0.296713 -16.9069 -4.73869 -1.47242 5.57112 -2.96276 -1.97401 -2.36921 
23.5157 97.505 2.42497 143.98 -79.6954 144.651 -174.43 15.1115 84.6337 -19.4918 -14.8475 -4.31712 64.3541 2.01664 1.61411 1.05204 -16.0726 0.389425 169.219 -14.0539 86.1031 -26.0156 -11.5569 0.650838 67.0815 -4.05149 -1.31578 44.6662 -6.60408 0.825678 1.61745 7.87806 -89.9967 11.126 3.22105 -0.30623 -0.540999 3.20444 -0.447847 -23.1074 3.16401 0.676986 -3.09475 3.164 0.67699 85.713 -34.5023 -113.03 38.1322 7.08166 -17.7744 -5.45941 -44.2696 -5.54671 -23.3775 3.37247 -21.8646 -83.2919 -59.8837 89.7259 -20.2388 -15.4293 4.32664 3.24424 32.459 -4.35589 1.27035 -0.45254 -15.7877 -4.44285 0.480039 5.14624 -4.41452 0.000557997 -1.4766 
26.2073 97.6639 8.58849 141.729 -77.4061 140.713 -174.427 10.7062 81.846 -22.9123 -13.8716 -4.63299 69.8219 6.1735 1.60083 2.68659 -16.5268 2.13498 167.772 -5.86052 81.3237 -45.5046 -18.934 -1.32565 57.0191 2.2743 0.262458 36.211 -4.16517 5.57107 1.57791 7.97604 -89.8033 10.9243 3.23256 0.0867274 -0.742608 3.23324 -0.0557859 -23.3076 3.0569 1.05515 -3.29491 3.05689 1.05515 85.114 -34.8934 -113.942 40.946 6.49255 -13.689 -5.63693 -46.599 -5.66038 -20.766 3.05267 -22.3413 -83.3199 -59.2901 89.6382 -20.1571 -15.3965 -0.155286 3.14198 31.3605 -4.20578 2.55571 -0.584425 -15.9751 -4.5587 2.52388 6.36829 -3.98615 1.89679 -0.912512 
28.8042 97.4851 13.4134 133.962 -74.0204 131.828 -174.927 6.32679 79.8308 -24.2075 -10.8609 -4.75532 73.4783 8.88115 2.52649 4.64927 -15.5737 2.57482 172.066 3.8302 81.5417 -63.4363 -22.6342 -4.89826 56.9779 2.24987 1.11671 24.3177 0.615333 3.79131 1.37472 8.13145 -89.7231 10.609 2.86537 0.291273 -1.05878 2.8754 0.164767 -23.6161 2.64526 1.13955 -3.6035 2.64526 1.13955 85.666 -34.9007 -112.943 42.9635 6.30298 -10.3611 -5.75113 -48.0017 -5.73725 -20.0746 3.10514 -23.2079 -83.9161 -59.8234 88.8743 -17.6367 -16.2679 -7.28322 3.29637 34.8721 -4.36298 4.28601 -0.905249 -18.2126 -5.27621 4.38658 8.60077 -3.41371 3.56953 -0.455141 
31.1 97.6642 17.2348 119.219 -67.6879 118.193 -175.77 3.00383 79.8658 -23.6057 -3.57232 -3.57975 75.6502 11.2119 3.27831 5.19383 -15.9327 3.43713 177.498 10.8212 85.0524 -66.121 -14.5683 -6.06032 61.9799 -1.12926 -2.31238 20.1747 1.4873 5.85188 0.920175 8.14012 -89.9257 10.5949 1.86689 -0.0207376 -1.07471 1.86417 -0.102916 -23.62 1.78678 0.541492 -3.60733 1.78678 0.541472 87.0261 -35.0554 -110.411 43.7952 6.90372 -6.46839 -5.51784 -45.0515 -5.58361 -21.0504 3.04615 -22.0256 -84.6216 -61.0936 88.0481 -14.5849 -17.8187 -16.0014 3.47152 38.3462 -4.54578 4.82129 -1.0569 -19.6525 -6.51506 5.91008 8.57736 -3.49047 5.12821 2.49545 
33.6689 98.4992 20.8112 108.055 -56.376 108.583 -177.006 -1.43287 81.1299 -21.2519 6.83194 -1.39548 75.6747 11.6189 2.30458 6.52558 -16.1449 4.78451 -178.967 13.224 88.4192 -55.9705 -6.09304 -7.05714 69.0455 -5.95982 -4.14258 12.6623 5.04221 4.50563 0.178156 8.17393 -90.1882 10.5266 0.26855 -0.397114 -1.14443 0.250831 -0.408555 -23.6793 0.375477 -0.298043 -3.66669 0.375477 -0.298043 87.5924 -34.9944 -109.402 42.7603 8.67489 -0.881486 -5.25686 -41.3741 -5.42513 -21.5344 2.90604 -20.8961 -85.2664 -59.299 86.9858 -16.5795 -17.0287 -24.5567 3.50896 39.0871 -4.58026 5.17935 -1.10317 -19.6729 -6.54775 6.49016 7.42014 -3.71446 5.76211 4.11632 
36.2585 98.8933 24.0867 99.8447 -42.75 102.455 -177.331 -3.4482 83.9698 -21.2104 21.1732 0.662595 76.0377 12.2123 2.47252 5.13893 -16.1729 3.67167 -178.523 15.827 90.6443 -41.2386 -8.01317 -6.38815 67.8495 -5.10488 -3.86636 16.3431 3.61114 4.28854 -0.537797 8.10704 -90.4836 10.6557 -1.2937 -0.843439 -1.01482 -1.32955 -0.785688 -23.5511 -0.980418 -1.19325 -3.53848 -0.980436 -1.19325 89.1939 -35.0453 -106.449 41.9189 10.0241 3.86201 -5.14037 -39.5882 -5.35827 -20.7959 2.31258 -18.1888 -86.13 -56.2759 85.4187 -22.2234 -13.3525 -33.0214 3.61959 41.0532 -4.6943 7.25411 -1.15985 -17.0197 -4.4968 5.95765 3.53435 -4.65451 5.3603 6.87595 
39.3474 98.6566 27.2609 96.5932 -32.3168 99.771 -176.425 -5.26389 86.5542 -22.6366 32.1068 1.45371 78.3152 14.029 2.45446 3.19138 -16.7909 2.83454 -179.834 17.8232 92.5599 -25.6664 -12.1337 -3.50891 65.0863 -3.12585 -0.0157752 20.7627 3.10238 0.977863 -0.767582 8.17363 -90.6104 10.5175 -1.80907 -1.05175 -1.15257 -1.8536 -0.971105 -23.6911 -1.40938 -1.54685 -3.67843 -1.40937 -1.54685 89.3149 -35.9532 -105.914 40.0664 11.4643 8.21583 -5.10404 -39.0149 -5.33895 -18.909 2.03997 -17.8812 -86.6592 -53.0501 84.2079 -28.1115 -8.41627 -39.5143 3.80222 43.9793 -4.87507 6.54667 -1.02634 -16.3505 -1.90415 4.71936 -0.22832 -4.8359 4.48545 6.95666 
43.462 97.7313 30.5534 95.1223 -26.0298 97.4892 -175.434 -7.4943 88.0339 -24.1308 39.6825 1.46272 79.8406 15.6577 3.2358 3.664 -16.8518 3.27967 179.239 17.3012 94.8246 -8.66218 -13.5965 -0.4181 62.2106 -2.34581 0.0398503 29.9634 -0.522249 0.0749859 -0.844462 8.20049 -90.5389 10.4653 -1.92947 -0.900083 -1.20451 -1.9672 -0.814272 -23.7454 -1.56977 -1.43841 -3.73275 -1.56975 -1.43841 88.7019 -36.9371 -106.682 38.9299 12.0743 9.85236 -5.2158 -40.7537 -5.40117 -18.9909 1.8444 -16.6275 -86.9501 -52.6527 83.7243 -31.0353 -5.76132 -41.3137 4.02505 47.1902 -5.10369 7.33845 -1.25075 -17.965 -0.346523 4.62764 -3.58331 -4.57705 4.84862 7.23683 
49.1991 96.5277 34.0535 94.123 -20.2358 96.1491 -173.847 -11.1881 90.4556 -24.7687 46.9806 1.7564 80.6196 17.0927 4.49646 3.0894 -17.564 3.63943 -179.298 19.7412 97.1239 -10.363 -19.5301 -0.687281 61.0871 -1.28539 -0.164609 31.5794 -1.21226 0.0932875 -1.05572 8.09627 -90.5305 10.6736 -2.34668 -0.840796 -0.995474 -2.38141 -0.736652 -23.5415 -1.98549 -1.50738 -3.52883 -1.98549 -1.50738 89.0512 -37.1813 -105.974 37.9257 12.1584 8.80059 -5.26876 -41.5496 -5.43168 -17.7072 2.04004 -18.748 -87.0898 -52.9525 83.5673 -32.9148 -4.95477 -37.6081 4.15124 48.811 -5.23117 7.9871 -1.34945 -18.2304 0.349013 4.77343 -4.88181 -4.38143 5.22722 6.5305 
57.1259 95.9793 37.3321 94.7833 -15.0147 97.1394 -171.932 -16.4789 94.1556 -26.4206 50.8965 4.08069 75.7323 13.6731 6.29147 7.48766 -10.9394 -0.967167 -176.26 22.1863 99.2526 -24.5428 -23.4235 -3.81407 59.573 0.454091 0.439237 26.5094 0.243645 2.28362 -1.1772 8.01189 -90.8142 10.8354 -2.7199 -1.36349 -0.833255 -2.7773 -1.24241 -23.3788 -2.18442 -2.11802 -3.36614 -2.18443 -2.11803 89.5239 -37.5117 -105.021 36.6578 12.2104 6.9753 -5.20388 -40.5721 -5.39435 -19.2558 2.31672 -19.3387 -87.2436 -54.8406 83.6385 -33.6411 -6.05599 -29.3783 4.13785 48.674 -5.21961 4.87707 -0.711285 -13.9884 0.844459 4.93626 -3.44764 -4.62517 5.20208 5.87306 
65.1403 96.1695 39.5484 95.4219 -9.74305 97.7736 -172.976 -14.8296 95.4562 -38.3381 51.2361 8.62559 65.2653 4.25244 2.3262 19.6961 -3.12676 -2.62073 -177.151 19.7942 100.066 -31.6343 -18.126 -2.96469 63.1723 -1.98189 -0.921002 25.4431 0.199473 3.74082 -1.13762 7.88417 -91.074 11.0808 -2.76278 -1.87075 -0.5884 -2.84239 -1.74732 -23.1275 -2.07299 -2.61451 -3.11489 -2.073 -2.61451 89.835 -37.6486 -104.422 37.5291 11.5328 4.46586 -5.16171 -39.921 -5.37073 -22.7588 2.29627 -16.9307 -87.1389 -55.1167 83.83 -33.9055 -7.71647 -19.3955 4.00646 46.9261 -5.08731 -0.417436 -0.138337 -5.5307 0.981861 4.74639 -1.5076 -4.63666 4.75801 5.0512 
71.3927 96.589 41.3141 96.4282 -3.84374 97.1658 -174.764 -5.25405 96.8922 -52.8427 41.5393 8.2622 53.0249 -4.8359 -5.70277 26.1339 -4.05042 5.15662 -179.458 14.5923 99.5487 -33.7654 -14.6971 -1.72222 68.8696 -5.3099 -0.627107 25.9271 0.247399 3.00024 -0.861242 7.95412 -91.0836 10.9436 -2.21607 -1.94576 -0.726796 -2.29952 -1.84636 -23.2585 -1.52902 -2.52163 -3.2459 -1.52902 -2.52163 89.2897 -36.8842 -105.646 38.746 10.4157 0.468771 -5.18741 -40.3228 -5.38497 -20.4569 2.22246 -17.9047 -87.268 -54.9241 83.6169 -30.2748 -10.1837 -15.5612 4.94728 56.8129 -6.03371 -4.16641 -0.0683429 -5.78515 2.28028 3.23675 -0.472597 -4.09286 3.18918 2.98079 
